# xmcd CD database file
#
# Track frame offsets:
#	150
#	16744
#	42243
#	65607
#	82479
#	113307
#	129618
#	146932
#	168934
#
# Disc length: 2722 seconds
#
# Revision: 1
# Processed by: cddbd v1.5.1PL0 Copyright (c) Steve Scherf et al.
# Submitted via: CDex 1.51
#
DISCID=790aa009
DTITLE=Mississippi Barry - Mississippi Barry
DYEAR=1997
DGENRE=Blues
TTITLE0=i keep to my side
TTITLE1=crankcase
TTITLE2=come on back
TTITLE3=e
TTITLE4=delay
TTITLE5=arthur's van
TTITLE6=piano
TTITLE7=that ain't new
TTITLE8=descension blues
EXTD=YEAR: 1997
EXTT0=
EXTT1=
EXTT2=
EXTT3=
EXTT4=
EXTT5=
EXTT6=
EXTT7=
EXTT8=
PLAYORDER=
